<svg xmlns="http://www.w3.org/2000/svg" width="200" height="200" fill="none" viewBox="0 0 200 200">
  <g clip-path="url(#a)">
    <path stroke="#000" stroke-linejoin="bevel" stroke-width="2" d="m21.374 195.186 30.924-25.906m-30.924 25.906L28.16 13.708m-6.787 181.478 32.204-.369m-1.28-25.537H22.613m29.685 0-28.616-29.018m-1.07 29.018 28.583-29.018M22.613 169.28l30.965 25.537m-2.383-54.555H23.682m27.513 0-26.49-26.31m-1.023 26.31 26.479-26.31m0 0H24.705m25.456 0-24.58-25.15m-.876 25.15 24.69-25.15m0 0H25.582m23.815 0L26.646 59.42m-1.065 29.382L48.385 59.42m0 0H26.647m21.738 0-21.02-24.448m-.718 24.448 20.8-24.448m0 0H27.365m20.082 0L28.16 13.708m-.795 21.264 19.267-21.264m0 0H28.16m18.47 0L37.72 2l-9.56 11.708m18.472 0 6.946 181.109M47.597 35.365l26.066 22.483L97.395 36.57l20.795 21.667 21.565-21.331 21.192 20.943m0 0 17.587-20.234 8.652 20.234m-26.239 0h17.587m-17.587 0L8.05 59.525m179.136-1.677h-8.652m8.652 0 .21-20.488m-.21 20.488 4.764-3.093V41.462l-4.554-4.102M8.513 35.057l17.834 24.268 22.09-.243 25.226-23.367 23.732 22.133L118.19 36.57l21.725 21.28 21.032-20.489 17.587 20.488M8.514 35.058h18.804m-18.805 0L8.05 59.524m19.268-24.468L8.05 59.525m19.268-24.468 160.078 2.303m-8.862 20.488 8.862-20.488"/>
    <mask id="b" width="97" height="135" x="69" y="78" maskUnits="userSpaceOnUse" style="mask-type:alpha">
      <path fill="#D9D9D9" d="M104.462 78.715 165.77 98.53l-14.215 53.572-14.636 35.499-8.336 25.324-59.146-23.164 9.43-22.854 13.909-32.929 11.686-55.263Z"/>
    </mask>
    <g mask="url(#b)">
      <path fill="#000" d="M93.39 197.272c-.547-.076-1.633-.279 0 0Zm-.05-.007c-1.583-.272-.895-.125-.348-.048l.844.118-.05-.007-.447-.063c.49.119.348.049 0 0Zm.447.063c17.282 2.821 35.992 1.317 44.213-18.63 5.336-12.877-1.821-23.79-7.977-34.613-.043-.057-.085-.113-.071-.213-.12-1.288-7.236-10.008-9.115-13.168.007-.05-.043-.057-.085-.114-.98-.95-1.546-5.147-1.772-7.466-.113-.981.022-1.928.356-2.847 3.44-9.89 5.594-17.163 18.744-13.089 9.461 2.948 2.407 16.501 7.424 18.625l.099.014c3.088.736 10.274-5.935 11.531-8.352 4.887-9.382-14.323-18.217-20.491-18.672-12.378-.967-21.381 4.587-27.873 14.914-11.94 19.021 3.023 34.887 11.272 50.222 6.248 11.598 4.562 20.919-6.216 28.614-11.85 8.46-22.022-6.889-22.039-16.702.018-8.995.993-15.111-7.962-4.925-8.294 9.466-3.225 24 9.962 26.402Zm279.881-10.003-.014.1a25.265 25.265 0 0 1-2.288 6.085c-1.776 3.208-3.885 6.269-6.307 9.031-2.968 3.398-4.474 4.712-7.477 7.648-5.66 5.563-9.998 9.685-16.41 14.838-8.925 7.14-18.915 15.352-29.316 20.761-14.845 7.788-32.214 8.056-48.524 7.302-47.711-2.294-117.93-5.598-139.84 43.496-.142.285-.412.4-.696.258-.142-.07-.234-.134-.263-.291-10.805-26.519-38.989-48.807-67.627-51.944-.306.008-.533-.176-.54-.482-.007-.306.178-.534.483-.542 78.656-26.323 151.17 1.701 232.492-1.425 20.329-.769 38.838-11.501 53.054-25.527 5.418-5.293 11.999-9.507 16.928-15.274.795-.957 5.313-8.815-.36-5.998-8.775 4.315-16.492 10.099-25.792 13.121-.426.143-.901.28-1.37.367-.156.029-.277.165-.348.307-1.826 3.914-4.127 7.608-6.882 10.934a34.019 34.019 0 0 1-11.808 8.873c-4.245 2.05-8.98 2.913-13.65 2.617a24.456 24.456 0 0 1-1.895-.214c-3.677-.514-6.019-1.146-8.644-2.987-3.357-2.401-4.058-5.65-3.772-9.423.171-2.263 1.911-4.511 3.317-6.195 1.406-1.685 3.536-3.471 4.906-3.839l.107-.036c7.142-3.882 18.171-2.697 25.916-3.699.205-.022.376-.151.397-.301l5.677-13.135c.142-.285-.021-.562-.255-.696a.556.556 0 0 0-.575.123 75.099 75.099 0 0 1-7.342 7.057c-3.373 2.68-5.929 4.255-7.767 4.709-2.095.47-4.245.627-6.346.435-2.506-.197-4.5-1.492-5.84-3.815-1.341-2.322-1.794-5.537-1.408-9.651.042-.655.149-1.403.313-2.193a.577.577 0 0 0-.255-.697.578.578 0 0 0-.696.259 67.324 67.324 0 0 1-2.997 3.953c-2.919 3.76-6.384 7.089-10.19 9.963-3.749 2.831-7.178 4.131-10.137 3.921-5.565-.422-8.097-3.978-7.555-10.612.499-6.335 4.827-18.896 12.941-37.384a6.748 6.748 0 0 0 .718-2.543c.15-1.758-.744-2.595-2.802-2.73-2.364-.127-4.735.508-6.794 1.796a22.634 22.634 0 0 0-6.518 6.257c-2.067 2.761-3.949 5.65-5.739 8.602a79.383 79.383 0 0 0-4.952 10.187c-1.57 3.898-2.899 7.169-3.823 9.734-.987 2.657-1.947 5.472-2.92 8.386-.697 2.037-1.514 4.566-1.671 4.951l-.156.385-13.791-1.012.022-.505c.071-1.21 1.67-5.307 4.718-12.456l-1.491 1.927c-2.919 3.761-6.335 7.096-10.14 9.97-3.749 2.831-7.178 4.131-10.138 3.921l-.596-.083c-4.819-.673-7.011-4.843-6.39-12.381.114-1.509.278-3.011.549-4.549a.576.576 0 0 0-.256-.697.576.576 0 0 0-.695.259c-9.474 12.757-17.228 18.79-23.545 18.314-5.564-.421-8.075-4.127-7.54-11.067.592-7.695 4.274-18.567 10.944-32.275 1.5-3.399 2.296-5.779 2.381-7.089.136-2.014-.723-2.388-1.468-2.492l-.199-.028c-.653-.04-2.101.164-5.295 1.598a26.856 26.856 0 0 0-7.548 5.3c-2.535 2.493-4.672 5.396-6.384 8.512-1.79 3.308-3.268 6.203-4.376 8.64-1.109 2.438-2.302 5.474-3.56 8.958s-2.345 6.484-3.269 8.693c-.924 2.209-1.897 4.767-2.928 7.724l-.156.385-13.237-.985c-.298-.042-.518-.276-.475-.575l.028-.199c2.899-6.458 7.19-16.99 12.775-31.257 5.585-14.266 10.452-25.633 14.246-33.745 3.289-7.063 6.962-13.972 11.046-20.569a60.318 60.318 0 0 1 11.703-13.818c4.325-3.666 8.818-5.325 13.283-5.006 4.712.353 6.862 3.042 6.519 7.925-.264 3.267-1.827 7.471-4.64 12.619-5.1 9.098-12.912 19.444-23.294 30.753a.549.549 0 0 0-.107.747c.17.228.518.276.745.105 1.654-.938 3.394-1.763 5.204-2.374 2.669-.949 5.508-1.315 8.376-1.168 5.366.394 7.849 3.231 7.463 8.413a15.251 15.251 0 0 1-1.393 5.499c-.732 1.575-1.556 3.442-2.508 5.495-.902 2.06-1.655 3.785-2.245 5.075-.597 1.34-1.357 3.114-2.338 5.366-.98 2.253-1.769 4.226-2.295 5.78-1.471 3.912-2.281 7.102-2.467 9.466-.228 3.018.964 3.184 1.362 3.24l.149.021c5.06.402 12.226-7.544 21.353-23.552.064-.092.071-.142.135-.235a119.936 119.936 0 0 1 8.148-15.535c3.658-5.741 7.499-8.509 11.509-8.203l8.006.712c.298.042.518.276.476.575a.582.582 0 0 1-.206.378c-1.413 1.022-3.508 3.983-6.229 8.839-2.877 5.24-4.859 8.827-6.166 11.236-1.321 2.51-2.927 5.946-4.71 10.271-1.783 4.326-2.793 7.845-2.979 10.564-.257 3.573 1.085 3.761 1.532 3.823l.149.021c.703.047 2.066-.271 4.707-2.087a27.707 27.707 0 0 0 5.41-4.887c1.471-1.777 3.111-4.039 4.979-6.828 1.868-2.789 3.48-5.207 4.837-7.254 1.477-2.182 2.038-2.917 2.379-3.175l.817-1.106c3.844-9.527 5.976-16.295 6.276-20.168a4.28 4.28 0 0 0-.177-1.956c-.12-.22-.071-.569.199-.684.107-.036.213-.072.312-.058l5.565.422c3.258.252 5.266.736 6.21 1.579.944.844 1.426 2.08 1.305 3.283-.171 1.196-.449 2.428-.868 3.59-.092.292.071.569.362.66.142.071.355-.001.468-.087 7.136-5.611 14.093-8.197 20.808-7.666 5.365.394 7.884 3.338 7.42 8.712a19.661 19.661 0 0 1-1.074 5.035c-.59 1.646-1.904 4.818-4.121 9.693-4.689 10.477-7.226 17.595-7.49 21.218-.214 2.563.737 3 1.482 3.105l.149.02c.703.048 2.066-.27 4.665-2.144 2.03-1.444 3.841-3.123 5.474-4.979a80.108 80.108 0 0 0 5.014-6.721c1.854-2.689 3.416-5.114 4.773-7.162.462-.748.845-1.305 1.165-1.768.007-.05.057-.043.064-.093 2.309-5.879 4.717-10.677 7.21-14.293 2.891-4.273 5.859-6.959 8.755-8.08 2.897-1.12 6.694-1.454 11.457-1.093a1.064 1.064 0 0 1 1.007 1.106l-.014.1c-.029.555-.412 1.112-1.115 1.776-3.849 3.173-7.996 9.151-12.422 17.784s-6.856 16.071-7.377 22.2c-.2 2.819.289 4.361 1.482 4.528l.099.014c2.96.21 7.206-2.908 12.532-9.331a93.166 93.166 0 0 0 12.99-19.992c.441-.955 1.038-2.295 1.855-4.113.817-1.817 1.392-3.008 1.69-3.678.299-.67.839-1.611 1.513-2.788.491-.948 1.116-1.775 1.833-2.539.461-.393 1.143-.908 1.945-1.559.803-.65 1.676-1.087 2.663-1.254a35.184 35.184 0 0 1 7.346-.346l5.565.421c.262-.065.539.126.603.389.064.264-.128.542-.391.607l-.113.086c-2.762 1.596-5.859 5.891-9.176 12.798-2.764 5.867-5.165 11.326-7.127 16.186-1.961 4.86-3.197 7.839-3.652 8.894-.454 1.055-1.485 3.656-3.062 7.604a334.985 334.985 0 0 1-3.034 7.404c-.135.235-.078.548.156.683.142.07.341.098.511-.031 5.878-2.483 11.402-5.676 16.556-9.48 2.897-2.188 25.185-20.932 24.136-7.201l.014.612Zm-175.174-87.302c-1.952-.171-5.807 2.34-12.882 14.975-4.894 8.72-9.874 18.75-14.855 29.847-.142.285.021.562.255.697a.578.578 0 0 0 .625-.116c10.901-12.456 18.741-23.002 23.295-31.465 2.905-5.795 4.426-9.7 4.583-11.508.164-2.214-.681-2.332-.929-2.367l-.092-.063Zm115.605 111.97c.135-.235.029-.555-.205-.69a.322.322 0 0 0-.299-.041c-2.761.173-5.508.247-8.233.527-3.855.377-9.647.482-12.977 3.22-.056.042-.064.092-.12.135-.654 1.027-1.002 2.758-1.216 4.964-.122 1.559 1.162 3.213 2.305 4.44a5.946 5.946 0 0 0 4.045 1.836c5.926.37 11.529-4.439 16.7-14.391Zm-79.67-76.552c3.201.295 7.347-.346 8.967-4.949.753-2.08-.189-4.703-.885-5.512-.695-.809-1.745-1.26-3.2-1.362-1.455-.101-3.322.553-5.183 1.869-2.477 1.738-2.798 4.692-2.38 6.733.411 1.735 1.397 2.991 2.681 3.221Z" opacity=".9"/>
    </g>
    <path fill="#000" d="m133.703 97.877.06.998.94-.057v-.941h-1Zm-9.063-29.57h-1l.967 1 .033-1Zm18.195 0 .033 1 .967-1h-1Zm-14.551 13.414v-1l-1 1h1Zm0 10.224h-1l1 1v-1Zm10.837 0v1l1-1h-1Zm0-10.224h1l-1-1v1Zm-6.418 10.224v5.932h2v-5.932h-2Zm1 5.932c-.061-.999-.061-.999-.062-.998h-.009l-.019.001a8.807 8.807 0 0 0-.957.14 8.816 8.816 0 0 0-2.104.707c-1.578.777-3.268 2.317-3.268 5.152h2c0-1.84 1.02-2.801 2.151-3.357a6.826 6.826 0 0 1 1.621-.541 6.838 6.838 0 0 1 .675-.104l.03-.002h.005-.002l-.061-.998Zm-6.419 5.002c0 2.796 1.654 4.651 3.674 5.415 1.96.742 4.368.491 5.97-.977l-1.351-1.474c-.948.869-2.525 1.105-3.911.581-1.327-.502-2.382-1.667-2.382-3.545h-2Zm-3.644-44.566v9.994h2v-9.994h-2Zm20.195 9.994v-9.994h-2v9.994h2Zm-19.228 1 6.582.216.066-1.998-6.583-.217-.065 1.999Zm5.615-.783V81.72h2V68.524h-2Zm1 1h5.031v-2h-5.031v2Zm5.064 0 6.582-.217-.066-2-6.582.218.066 1.998Zm-5.064 11.197h-2.938v2h2.938v-2Zm-3.938 1v10.224h2V81.72h-2Zm12.837 10.224V81.72h-2v10.224h2Zm-4.868-23.421V81.72h2V68.524h-2Zm3.868 12.197h-2.868v2h2.868v-2Zm-2.868 0h-5.031v2h5.031v-2Zm-7.969 12.224h5.419v-2h-5.419v2Zm5.419 0h5.418v-2h-5.418v2Z"/>
  </g>
  <defs>
    <clipPath id="a">
      <path fill="#fff" d="M0 0h200v200H0z"/>
    </clipPath>
  </defs>
</svg>
