<svg width="168" height="114" viewBox="0 0 168 114" fill="none" xmlns="http://www.w3.org/2000/svg">
<path opacity="0.9" d="M17.5238 62.6259C16.6259 62.5987 17.2245 62.6259 17.5238 62.6259V62.6259ZM17.4966 62.6259C16.6259 62.5987 17.0068 62.6259 17.3061 62.6259H17.7687H17.7415H17.4966C17.7687 62.6531 17.6871 62.6259 17.4966 62.6259ZM17.7415 62.6259C27.2381 62.8436 37.1701 60.6395 40.0544 49.347C41.932 42.0544 37.2517 36.7483 33.1156 31.415C33.0884 31.3878 33.0612 31.3606 33.0612 31.3061C32.898 30.6259 28.4082 26.4898 27.1565 24.9388C27.1565 24.9116 27.1293 24.9116 27.102 24.8844C26.5034 24.449 25.8776 22.2449 25.5782 21.0204C25.4422 20.5034 25.4422 19.9864 25.551 19.4694C26.6395 13.9184 27.2381 9.86397 34.6122 11.0612C39.9184 11.932 37.1701 19.7143 40.0272 20.4762H40.0816C41.7959 20.6395 45.1429 16.5306 45.6327 15.1429C47.5374 9.75513 36.5442 6.46261 33.1973 6.68029C26.4762 7.08846 22.068 10.7347 19.3742 16.7483C14.4218 27.8232 23.6735 35.1973 29.2789 42.7891C33.5238 48.5306 33.3333 53.6463 28.1361 58.5714C22.4218 63.9864 15.7823 56.5306 15.0204 51.2789C14.3401 46.4626 14.3946 43.1157 10.3673 49.2381C6.63946 54.9252 10.4762 62.3265 17.7415 62.6259ZM167.265 36.3402V36.3946C167.156 37.5646 166.912 38.7075 166.503 39.8232C165.796 41.6735 164.898 43.4694 163.81 45.1293C162.476 47.1701 161.769 47.9864 160.381 49.7823C157.769 53.1837 155.755 55.7143 152.707 58.9524C148.463 63.4422 143.728 68.5851 138.558 72.2585C131.184 77.5374 121.878 78.9796 113.061 79.7959C87.2653 82.1361 49.3061 85.6191 41.3061 113.537C41.2517 113.701 41.1156 113.782 40.9524 113.728C40.8707 113.701 40.8163 113.673 40.7891 113.592C32.9524 100.204 16.1088 90.381 0.489798 90.8436C0.326533 90.8708 0.190479 90.7891 0.163268 90.6259C0.136057 90.4626 0.21769 90.3266 0.380955 90.2993C40.5986 70.3266 81.6871 79.9048 125.116 72.1497C135.973 70.2177 145.088 63.0885 151.646 54.517C154.15 51.2789 157.361 48.5306 159.565 45.0748C159.918 44.5034 161.741 39.9592 158.912 41.8912C154.531 44.8572 150.83 48.5306 146.068 50.8436C145.85 50.9524 145.605 51.0612 145.361 51.1429C145.279 51.1701 145.224 51.2517 145.197 51.3334C144.517 53.5646 143.565 55.7143 142.34 57.7007C140.898 59.9592 138.966 61.8912 136.68 63.3334C134.558 64.7483 132.082 65.5646 129.551 65.7551C129.197 65.7823 128.871 65.7823 128.517 65.7823C126.503 65.7823 125.197 65.6191 123.646 64.83C121.66 63.7959 121.034 62.1089 120.898 60.068C120.816 58.8436 121.578 57.5102 122.204 56.5034C122.83 55.4966 123.837 54.381 124.544 54.0817L124.599 54.0544C128.136 51.4422 134.15 51.2517 138.231 50.1361C138.34 50.1089 138.422 50.0272 138.422 49.9456L140.463 42.4898C140.517 42.3266 140.408 42.1905 140.272 42.1361C140.163 42.1089 140.027 42.1633 139.973 42.2449C138.939 43.7687 137.796 45.2109 136.571 46.5714C134.966 48.2585 133.714 49.2925 132.762 49.6735C131.673 50.0817 130.531 50.3266 129.388 50.381C128.027 50.4626 126.857 49.9184 125.959 48.7755C125.061 47.6327 124.571 45.9456 124.463 43.7143C124.435 43.3606 124.435 42.9524 124.463 42.517C124.49 42.3538 124.408 42.2177 124.272 42.1633C124.109 42.1361 123.973 42.2177 123.918 42.3538C123.483 43.1973 123.048 43.9864 122.612 44.6939C121.333 46.9252 119.728 48.966 117.905 50.7891C116.109 52.5851 114.367 53.5374 112.762 53.6463C109.741 53.8368 108.109 52.1225 107.891 48.5306C107.673 45.1021 109.034 38.0544 111.973 27.551C112.136 27.0885 112.19 26.5987 112.163 26.1361C112.109 25.1837 111.565 24.8027 110.449 24.8844C109.17 24.9932 107.946 25.5102 106.939 26.3538C105.687 27.415 104.653 28.7211 103.918 30.1905C103.02 31.8231 102.231 33.5102 101.497 35.2245C100.735 37.1021 100.109 39.0612 99.619 41.0476C99.0748 43.2517 98.6122 45.1021 98.3129 46.5442C97.9864 48.0408 97.6871 49.6191 97.3878 51.2517C97.1701 52.3946 96.9252 53.8095 96.8707 54.0272L96.8163 54.2449L89.3333 54.7347L89.3061 54.4626C89.2517 53.8095 89.7959 51.4966 90.8843 47.4422C90.6667 47.8232 90.449 48.2041 90.2313 48.5851C88.9524 50.8163 87.3742 52.8572 85.551 54.6803C83.7551 56.4762 82.0136 57.4286 80.4082 57.5374C80.2993 57.5374 80.1905 57.5374 80.0816 57.5374C77.4422 57.5374 75.9456 55.4694 75.7007 51.3878C75.6463 50.5715 75.619 49.7551 75.6463 48.9116C75.6735 48.7483 75.5918 48.6123 75.4558 48.5578C75.2925 48.5306 75.1565 48.6123 75.102 48.7483C70.9932 56.2857 67.2925 60.0953 63.8639 60.3129C60.8435 60.5034 59.2109 58.7075 58.966 54.9524C58.6939 50.7891 59.8367 44.6939 62.3673 36.8572C62.9116 34.9252 63.1565 33.5919 63.102 32.8844C63.0204 31.7959 62.5306 31.6599 62.1224 31.6599H62.0136C61.6599 31.6871 60.898 31.9048 59.2925 32.9116C57.8776 33.8368 56.6531 34.9796 55.6463 36.3129C54.4762 37.8368 53.551 39.551 52.8707 41.347C52.1633 43.2517 51.5918 44.9116 51.1837 46.2993C50.7755 47.6871 50.3673 49.4014 49.9592 51.3606C49.551 53.3197 49.1973 55.0068 48.8707 56.2585C48.5442 57.5102 48.2177 58.9524 47.8912 60.6123L47.8367 60.8299L40.6531 61.2925C40.4898 61.2925 40.3537 61.1837 40.3537 61.0204C40.3537 60.9932 40.3537 60.966 40.3537 60.9116C41.415 57.2381 42.9116 51.2789 44.8163 43.2245C46.7211 35.1701 48.4626 28.7211 49.8775 24.0953C51.102 20.068 52.5442 16.0953 54.2313 12.2585C55.5374 9.26533 57.3061 6.46261 59.4558 3.98642C61.4966 1.7007 63.7823 0.476215 66.2041 0.312949C68.7619 0.149684 70.1225 1.4286 70.3129 4.06805C70.4218 5.83676 69.9048 8.2041 68.7891 11.1701C66.7483 16.4218 63.3469 22.5442 58.6394 29.3742C58.5306 29.483 58.5306 29.6735 58.6394 29.7823C58.7483 29.8912 58.9388 29.8912 59.0476 29.7823C59.8639 29.1565 60.7347 28.5851 61.6599 28.1225C63.0204 27.415 64.517 27.0068 66.068 26.8708C68.9796 26.6803 70.5306 28.0136 70.7211 30.8163C70.8027 31.8504 70.6939 32.8844 70.3946 33.864C70.1224 34.7619 69.8231 35.8231 69.4694 36.9932C69.1429 38.1633 68.8707 39.1429 68.6531 39.8776C68.4354 40.6395 68.1633 41.6463 67.8095 42.9252C67.4558 44.2041 67.1837 45.3197 67.0204 46.1905C66.5306 48.3946 66.3401 50.1633 66.4218 51.4422C66.5306 53.0748 67.1837 53.0748 67.4014 53.0748H67.483C70.2313 52.9116 73.4694 48.1225 77.1429 38.8708C77.1701 38.8164 77.1701 38.7891 77.1973 38.7347C78.0408 35.6871 79.102 32.6939 80.381 29.8095C81.9048 26.4626 83.7551 24.6939 85.932 24.5578L90.2857 24.3402C90.449 24.3402 90.585 24.449 90.585 24.6123C90.585 24.6939 90.5578 24.7755 90.5034 24.83C89.8231 25.483 88.9252 27.2245 87.8367 30.0272C86.6939 33.0476 85.9048 35.1157 85.3878 36.5034C84.8707 37.9456 84.2721 39.9048 83.6463 42.3538C83.0204 44.8027 82.7483 46.7619 82.8571 48.2313C82.9932 50.1633 83.7279 50.1633 83.9728 50.1633H84.0544C84.4354 50.1361 85.1429 49.864 86.4218 48.6939C87.4014 47.7959 88.2449 46.7891 88.9524 45.6735C89.6054 44.6123 90.3129 43.2789 91.102 41.6463C91.8912 40.0136 92.5714 38.5987 93.1429 37.4014C93.7687 36.1225 94.0136 35.6871 94.1769 35.5238L94.5306 34.8708C95.8639 29.483 96.4898 25.7007 96.3537 23.6055C96.3537 23.2517 96.2721 22.898 96.1088 22.5714C96.0272 22.4626 96.0272 22.2721 96.1633 22.1905C96.2177 22.1633 96.2721 22.1361 96.3265 22.1361L99.3469 21.9456C101.116 21.8368 102.231 21.9456 102.803 22.3266C103.374 22.7075 103.728 23.3334 103.755 23.9864C103.755 24.6395 103.701 25.3197 103.565 25.9728C103.537 26.1361 103.646 26.2721 103.81 26.2993C103.891 26.3266 104 26.2721 104.054 26.2177C107.456 22.6803 110.993 20.7755 114.639 20.5578C117.551 20.3674 119.129 21.7551 119.293 24.6667C119.347 25.5919 119.293 26.517 119.102 27.4422C118.912 28.3674 118.449 30.1633 117.633 32.9388C115.918 38.898 115.102 42.898 115.238 44.8572C115.32 46.2449 115.864 46.4082 116.272 46.4082H116.354C116.735 46.381 117.442 46.1089 118.694 44.9116C119.673 43.9864 120.517 42.9524 121.252 41.8368C122.041 40.5578 122.776 39.2245 123.429 37.864C124.218 36.2857 124.871 34.8708 125.442 33.6735C125.633 33.2381 125.796 32.9116 125.932 32.6395C125.932 32.6123 125.959 32.6123 125.959 32.5851C126.748 29.2653 127.673 26.517 128.735 24.3946C129.959 21.8912 131.347 20.2313 132.816 19.415C134.286 18.5987 136.299 18.1361 138.884 17.9728C139.211 17.9456 139.483 18.1905 139.51 18.4898C139.51 18.517 139.51 18.517 139.51 18.5442C139.537 18.8436 139.374 19.1701 139.048 19.5782C137.224 21.5646 135.456 25.0749 133.741 30.0272C132.027 34.9796 131.293 39.1429 131.483 42.4626C131.592 43.9864 131.973 44.7755 132.626 44.7755H132.68C134.286 44.6667 136.327 42.6803 138.694 38.8436C141.007 35.1973 142.83 31.2789 144.136 27.1701C144.299 26.6259 144.517 25.864 144.816 24.83C145.116 23.7959 145.333 23.1157 145.442 22.7347C145.551 22.3538 145.769 21.8095 146.041 21.1293C146.231 20.5851 146.503 20.0953 146.83 19.6327C147.048 19.3878 147.374 19.0612 147.755 18.6531C148.136 18.2449 148.571 17.9456 149.088 17.7823C150.367 17.4014 151.673 17.1565 153.007 17.0476L156.027 16.8572C156.163 16.8027 156.327 16.8844 156.381 17.0204C156.435 17.1565 156.354 17.3198 156.218 17.3742L156.163 17.4286C154.803 18.4898 153.469 21.0204 152.218 24.966C151.184 28.3129 150.313 31.415 149.633 34.1633C148.952 36.9116 148.517 38.5987 148.354 39.1973C148.19 39.7959 147.837 41.2653 147.293 43.4966C146.884 45.1837 146.531 46.5715 146.231 47.6871C146.177 47.8232 146.231 47.9864 146.367 48.0408C146.449 48.068 146.558 48.0681 146.639 47.9864C149.605 46.2177 152.327 44.0953 154.803 41.6735C156.19 40.2857 166.721 28.5851 167.211 36.0136L167.265 36.3402ZM66.5034 2.70751C65.4422 2.76193 63.5646 4.39458 60.7347 11.6871C58.7755 16.7211 56.8707 22.4626 55.0476 28.7755C54.9932 28.9388 55.102 29.0748 55.2381 29.1293C55.3469 29.1565 55.483 29.1293 55.5646 29.0204C60.4626 21.5374 63.8639 15.3061 65.6599 10.4354C66.7755 7.11567 67.2925 4.91159 67.2381 3.932C67.1565 2.73472 66.6939 2.73472 66.5578 2.73472L66.5034 2.70751ZM137.17 54C137.224 53.864 137.143 53.7007 137.007 53.6463C136.952 53.6191 136.898 53.6191 136.844 53.6463C135.374 53.9456 133.905 54.1905 132.463 54.5442C130.422 55.034 127.32 55.5238 125.741 57.2381C125.714 57.2653 125.714 57.2925 125.687 57.3197C125.415 57.9184 125.361 58.8708 125.415 60.068C125.469 60.9116 126.286 61.7007 126.993 62.2721C127.646 62.7891 128.49 63.034 129.306 62.9524C132.517 62.7075 135.156 59.7143 137.17 54ZM88.517 18.9796C90.2585 18.898 92.4354 18.2449 92.9524 15.6599C93.1973 14.4898 92.4898 13.1565 92.0544 12.7755C91.619 12.3946 91.0204 12.2313 90.2313 12.2857C89.4422 12.3402 88.4898 12.83 87.5918 13.6735C86.3946 14.7891 86.449 16.3946 86.8299 17.4558C87.1837 18.3538 87.8095 18.9524 88.517 18.9796Z" fill="white"/>
</svg>
